{
  "source": "C:\\Users\\Peter\\Desktop\\stuff\\MIUN\\quantitative_research\\video_compression\\videos\\UVG\\Bosphorus_1920x1080_120fps_420_8bit_YUV.y4m",
  "output": "C:\\Users\\Peter\\Desktop\\stuff\\MIUN\\quantitative_research\\video_compression\\compressed_videos\\UVG\\av1\\1.5\\Bosphorus_1920x1080_120fps_420_8bit_YUV_av1.mkv",
  "codec": "av1",
  "ok": "[yuv4mpegpipe @ 000001be9a4e5380] Stream #0: not enough frames to estimate rate; consider increasing probesize\nInput #0, yuv4mpegpipe, from 'C:\\Users\\Peter\\Desktop\\stuff\\MIUN\\quantitative_research\\video_compression\\videos\\UVG\\Bosphorus_1920x1080_120fps_420_8bit_YUV.y4m':\n  Duration: 00:00:05.00, start: 0.000000, bitrate: 2985989 kb/s\n  Stream #0:0: Video: rawvideo (I420 / 0x30323449), yuv420p(progressive), 1920x1080, 120 fps, 120 tbr, 120 tbn\n[out#0/matroska @ 000001be9a4e90c0] Codec AVOption b:a (set bitrate (in bits/s)) has not been used for any stream. The most likely reason is either wrong type (e.g. a video option with no video streams) or that it is a private option of some decoder which was not actually used for any stream.\nStream mapping:\n  Stream #0:0 -> #0:0 (rawvideo (native) -> av1 (libsvtav1))\nPress [q] to stop, [?] for help\nSvt[info]: -------------------------------------------\nSvt[info]: SVT [version]:\tSVT-AV1 Encoder Lib v3.1.0-19-g6ecfe8ec\nSvt[info]: SVT [build]  :\tGCC 15.2.0\t 64 bit\nSvt[info]: LIB Build date: Aug 17 2025 11:37:13\nSvt[info]: -------------------------------------------\n[libsvtav1 @ 000001be9a4ec1c0] Specified chroma sample location center is unsupported on the AV1 bit stream level. Usage of a container that allows passing this information - such as Matroska - is recommended.\nSvt[info]: Level of Parallelism: 5\nSvt[info]: Number of PPCS 93\nSvt[info]: [asm level on system : up to avx2]\nSvt[info]: [asm level selected : up to avx2]\nSvt[info]: -------------------------------------------\nSvt[info]: SVT [config]: main profile\ttier (auto)\tlevel (auto)\nSvt[info]: SVT [config]: width / height / fps numerator / fps denominator \t\t: 1920 / 1080 / 120 / 1\nSvt[info]: SVT [config]: bit-depth / color format \t\t\t\t\t: 8 / YUV420\nSvt[info]: SVT [config]: preset / tune / pred struct \t\t\t\t\t: 4 / PSNR / random access\nSvt[info]: SVT [config]: gop size / mini-gop size / key-frame type \t\t\t: 641 / 16 / key frame\nSvt[info]: SVT [config]: BRC mode / target bitrate (kbps)\t\t\t\t: VBR / 1500 \nSvt[info]: SVT [config]: AQ mode / Variance Boost \t\t\t\t\t: 2 / 0\nSvt[info]: SVT [config]: sharpness / luminance-based QP bias \t\t\t\t: 0 / 0\nSvt[info]: SVT [config]: QP scale compress strength \t\t\t\t\t: 0\nSvt[info]: -------------------------------------------\nOutput #0, matroska, to 'C:\\Users\\Peter\\Desktop\\stuff\\MIUN\\quantitative_research\\video_compression\\compressed_videos\\UVG\\av1\\1.5\\Bosphorus_1920x1080_120fps_420_8bit_YUV_av1.mkv':\n  Metadata:\n    encoder         : Lavf62.3.100\n  Stream #0:0: Video: av1 (AV01 / 0x31305641), yuv420p(tv, progressive), 1920x1080, q=2-31, 1500 kb/s, 120 fps, 1k tbn\n    Metadata:\n      encoder         : Lavc62.11.100 libsvtav1\n    Side data:\n      cpb: bitrate max/min/avg: 0/0/1500000 buffer size: 1500000 vbv_delay: N/A\nframe=    0 fps=0.0 q=0.0 size=       0KiB time=N/A bitrate=N/A speed=N/A elapsed=0:00:06.19    \nframe=    0 fps=0.0 q=0.0 size=       0KiB time=N/A bitrate=N/A speed=N/A elapsed=0:00:06.71    \nframe=    0 fps=0.0 q=0.0 size=       0KiB time=N/A bitrate=N/A speed=N/A elapsed=0:00:07.22    \nframe=    0 fps=0.0 q=0.0 size=       0KiB time=N/A bitrate=N/A speed=N/A elapsed=0:00:07.74    \nframe=    0 fps=0.0 q=0.0 size=       0KiB time=N/A bitrate=N/A speed=N/A elapsed=0:00:08.25    \nframe=    0 fps=0.0 q=0.0 size=       0KiB time=N/A bitrate=N/A speed=N/A elapsed=0:00:08.77    \nframe=    0 fps=0.0 q=0.0 size=       0KiB time=N/A bitrate=N/A speed=N/A elapsed=0:00:09.29    \nframe=    0 fps=0.0 q=0.0 size=       0KiB time=N/A bitrate=N/A speed=N/A elapsed=0:00:09.80    \nframe=    0 fps=0.0 q=0.0 size=       0KiB time=N/A bitrate=N/A speed=N/A elapsed=0:00:10.31    \nframe=    0 fps=0.0 q=0.0 size=       0KiB time=N/A bitrate=N/A speed=N/A elapsed=0:00:10.83    \nframe=    0 fps=0.0 q=0.0 size=       0KiB time=N/A bitrate=N/A speed=N/A elapsed=0:00:11.34    \nframe=    0 fps=0.0 q=0.0 size=       0KiB time=N/A bitrate=N/A speed=N/A elapsed=0:00:11.86    \nframe=    0 fps=0.0 q=0.0 size=       0KiB time=N/A bitrate=N/A speed=N/A elapsed=0:00:12.37    \nframe=    0 fps=0.0 q=0.0 size=       0KiB time=N/A bitrate=N/A speed=N/A elapsed=0:00:12.90    \nframe=    0 fps=0.0 q=0.0 size=       0KiB time=N/A bitrate=N/A speed=N/A elapsed=0:00:13.41    \nframe=    0 fps=0.0 q=0.0 size=       0KiB time=N/A bitrate=N/A speed=N/A elapsed=0:00:13.93    \nframe=    0 fps=0.0 q=0.0 size=       0KiB time=N/A bitrate=N/A speed=N/A elapsed=0:00:14.44    \nframe=    0 fps=0.0 q=0.0 size=       0KiB time=N/A bitrate=N/A speed=N/A elapsed=0:00:14.95    \nframe=    0 fps=0.0 q=0.0 size=       0KiB time=N/A bitrate=N/A speed=N/A elapsed=0:00:15.47    \nframe=    0 fps=0.0 q=0.0 size=       0KiB time=N/A bitrate=N/A speed=N/A elapsed=0:00:15.98    \nframe=    0 fps=0.0 q=0.0 size=       0KiB time=N/A bitrate=N/A speed=N/A elapsed=0:00:16.50    \nframe=    0 fps=0.0 q=0.0 size=       0KiB time=N/A bitrate=N/A speed=N/A elapsed=0:00:17.01    \nframe=    0 fps=0.0 q=0.0 size=       0KiB time=N/A bitrate=N/A speed=N/A elapsed=0:00:17.53    \nframe=    1 fps=0.1 q=27.0 size=       1KiB time=00:00:00.00 bitrate=N/A speed=   0x elapsed=0:00:18.05    \nframe=    1 fps=0.1 q=27.0 size=       1KiB time=00:00:00.00 bitrate=N/A speed=   0x elapsed=0:00:18.56    \nframe=    1 fps=0.1 q=27.0 size=       1KiB time=00:00:00.00 bitrate=N/A speed=   0x elapsed=0:00:19.08    \nframe=    1 fps=0.1 q=27.0 size=       1KiB time=00:00:00.00 bitrate=N/A speed=   0x elapsed=0:00:19.61    \nframe=    1 fps=0.0 q=27.0 size=       1KiB time=00:00:00.00 bitrate=N/A speed=   0x elapsed=0:00:20.17    \nframe=    1 fps=0.0 q=27.0 size=       1KiB time=00:00:00.00 bitrate=N/A speed=   0x elapsed=0:00:20.70    \nframe=    2 fps=0.1 q=57.0 size=       1KiB time=00:00:00.00 bitrate= 537.6kbits/s speed=0.000393x elapsed=0:00:21.21    \nframe=    3 fps=0.1 q=54.0 size=       1KiB time=00:00:00.01 bitrate= 268.8kbits/s speed=0.000766x elapsed=0:00:21.75    \nframe=    5 fps=0.2 q=52.0 size=       1KiB time=00:00:00.03 bitrate= 134.4kbits/s speed=0.00149x elapsed=0:00:22.30    \nframe=    6 fps=0.3 q=53.0 size=       1KiB time=00:00:00.04 bitrate= 107.5kbits/s speed=0.00183x elapsed=0:00:22.81    \nframe=    6 fps=0.3 q=53.0 size=       1KiB time=00:00:00.04 bitrate= 107.5kbits/s speed=0.00179x elapsed=0:00:23.33    \nframe=    8 fps=0.3 q=53.0 size=       1KiB time=00:00:00.05 bitrate=  76.8kbits/s speed=0.00244x elapsed=0:00:23.86    \nframe=   10 fps=0.4 q=52.0 size=       1KiB time=00:00:00.07 bitrate=  59.7kbits/s speed=0.00307x elapsed=0:00:24.42    \nframe=   12 fps=0.5 q=49.0 size=       1KiB time=00:00:00.09 bitrate=  48.9kbits/s speed=0.00367x elapsed=0:00:24.96    \nframe=   14 fps=0.5 q=49.0 size=       1KiB time=00:00:00.10 bitrate=  41.4kbits/s speed=0.00424x elapsed=0:00:25.53    \nframe=   15 fps=0.6 q=49.0 size=       1KiB time=00:00:00.11 bitrate=  38.4kbits/s speed=0.00448x elapsed=0:00:26.05    \nframe=   17 fps=0.6 q=40.0 size=       1KiB time=00:00:00.13 bitrate=  33.6kbits/s speed=0.005x elapsed=0:00:26.65    \nframe=   18 fps=0.7 q=49.0 size=       1KiB time=00:00:00.14 bitrate=  31.6kbits/s speed=0.0052x elapsed=0:00:27.23    \nframe=   21 fps=0.8 q=52.0 size=       1KiB time=00:00:00.16 bitrate=  26.9kbits/s speed=0.006x elapsed=0:00:27.79    \nframe=   22 fps=0.8 q=47.0 size=       1KiB time=00:00:00.17 bitrate=  25.6kbits/s speed=0.00618x elapsed=0:00:28.31    \nframe=   23 fps=0.8 q=49.0 size=       1KiB time=00:00:00.18 bitrate=  24.4kbits/s speed=0.00636x elapsed=0:00:28.83    \nframe=   25 fps=0.9 q=49.0 size=       1KiB time=00:00:00.20 bitrate=  22.4kbits/s speed=0.00681x elapsed=0:00:29.35    \nframe=   27 fps=0.9 q=45.0 size=       1KiB time=00:00:00.21 bitrate=  20.7kbits/s speed=0.00725x elapsed=0:00:29.86    \nframe=   28 fps=0.9 q=44.0 size=       1KiB time=00:00:00.22 bitrate=  19.9kbits/s speed=0.00741x elapsed=0:00:30.38    \nframe=   32 fps=1.0 q=43.0 size=       1KiB time=00:00:00.25 bitrate=  17.3kbits/s speed=0.00835x elapsed=0:00:30.93    \nframe=   35 fps=1.1 q=44.0 size=       1KiB time=00:00:00.28 bitrate=  15.8kbits/s speed=0.00899x elapsed=0:00:31.51    \nframe=   36 fps=1.1 q=41.0 size=       1KiB time=00:00:00.29 bitrate=  15.4kbits/s speed=0.0091x elapsed=0:00:32.03    \nframe=   37 fps=1.1 q=47.0 size=       1KiB time=00:00:00.30 bitrate=  14.9kbits/s speed=0.00922x elapsed=0:00:32.55    \nframe=   38 fps=1.1 q=40.0 size=       1KiB time=00:00:00.30 bitrate=  14.5kbits/s speed=0.00931x elapsed=0:00:33.10    \nframe=   40 fps=1.2 q=40.0 size=       1KiB time=00:00:00.32 bitrate=  13.8kbits/s speed=0.00965x elapsed=0:00:33.68    \nframe=   41 fps=1.2 q=45.0 size=       1KiB time=00:00:00.33 bitrate=  13.4kbits/s speed=0.00974x elapsed=0:00:34.21    \nframe=   44 fps=1.3 q=39.0 size=       1KiB time=00:00:00.35 bitrate=  12.5kbits/s speed=0.0103x elapsed=0:00:34.74    \nframe=   45 fps=1.3 q=46.0 size=       1KiB time=00:00:00.36 bitrate=  12.2kbits/s speed=0.0104x elapsed=0:00:35.26    \nframe=   47 fps=1.3 q=45.0 size=       1KiB time=00:00:00.38 bitrate=  11.7kbits/s speed=0.0107x elapsed=0:00:35.79    \nframe=   48 fps=1.3 q=45.0 size=       1KiB time=00:00:00.39 bitrate=  11.4kbits/s speed=0.0108x elapsed=0:00:36.29    \nframe=   49 fps=1.3 q=34.0 size=       1KiB time=00:00:00.40 bitrate=  11.2kbits/s speed=0.0109x elapsed=0:00:36.83    \nframe=   49 fps=1.3 q=34.0 size=       1KiB time=00:00:00.40 bitrate=  11.2kbits/s speed=0.0107x elapsed=0:00:37.35    \nframe=   50 fps=1.3 q=42.0 size=       1KiB time=00:00:00.40 bitrate=  11.0kbits/s speed=0.0108x elapsed=0:00:37.87    \nframe=   52 fps=1.3 q=38.0 size=       1KiB time=00:00:00.42 bitrate=  10.5kbits/s speed=0.011x elapsed=0:00:38.52    \nframe=   53 fps=1.4 q=45.0 size=       1KiB time=00:00:00.43 bitrate=  10.3kbits/s speed=0.0111x elapsed=0:00:39.06    \nframe=   54 fps=1.4 q=37.0 size=       1KiB time=00:00:00.44 bitrate=  10.1kbits/s speed=0.0111x elapsed=0:00:39.64    \nframe=   55 fps=1.4 q=41.0 size=       1KiB time=00:00:00.45 bitrate=  10.0kbits/s speed=0.0112x elapsed=0:00:40.20    \nframe=   57 fps=1.4 q=43.0 size=       1KiB time=00:00:00.46 bitrate=   9.6kbits/s speed=0.0114x elapsed=0:00:40.78    \nframe=   58 fps=1.4 q=38.0 size=       1KiB time=00:00:00.47 bitrate=   9.4kbits/s speed=0.0115x elapsed=0:00:41.31    \nframe=   59 fps=1.4 q=43.0 size=       1KiB time=00:00:00.48 bitrate=   9.3kbits/s speed=0.0116x elapsed=0:00:41.84    \nframe=   61 fps=1.4 q=44.0 size=       1KiB time=00:00:00.50 bitrate=   9.0kbits/s speed=0.0118x elapsed=0:00:42.36    \nframe=   62 fps=1.4 q=42.0 size=       1KiB time=00:00:00.50 bitrate=   8.8kbits/s speed=0.0118x elapsed=0:00:42.90    \nframe=   64 fps=1.5 q=42.0 size=       1KiB time=00:00:00.52 bitrate=   8.5kbits/s speed=0.0121x elapsed=0:00:43.43    \nframe=   65 fps=1.5 q=33.0 size=       1KiB time=00:00:00.53 bitrate=   8.4kbits/s speed=0.0121x elapsed=0:00:43.96    \nframe=   66 fps=1.5 q=40.0 size=       1KiB time=00:00:00.54 bitrate=   8.3kbits/s speed=0.0122x elapsed=0:00:44.49    \nframe=   67 fps=1.5 q=40.0 size=       1KiB time=00:00:00.55 bitrate=   8.1kbits/s speed=0.0122x elapsed=0:00:45.04    \nframe=   69 fps=1.5 q=45.0 size=       1KiB time=00:00:00.55 bitrate=   8.0kbits/s speed=0.0123x elapsed=0:00:45.56    \nframe=   70 fps=1.5 q=37.0 size=       1KiB time=00:00:00.57 bitrate=   7.8kbits/s speed=0.0125x elapsed=0:00:46.17    \nframe=   70 fps=1.5 q=37.0 size=       1KiB time=00:00:00.57 bitrate=   7.8kbits/s speed=0.0123x elapsed=0:00:46.78    \nframe=   73 fps=1.5 q=42.0 size=       1KiB time=00:00:00.59 bitrate=   7.6kbits/s speed=0.0125x elapsed=0:00:47.30    \nframe=   73 fps=1.5 q=42.0 size=       1KiB time=00:00:00.60 bitrate=   7.5kbits/s speed=0.0125x elapsed=0:00:47.84    \nframe=   74 fps=1.5 q=38.0 size=       1KiB time=00:00:00.60 bitrate=   7.4kbits/s speed=0.0126x elapsed=0:00:48.37    \nframe=   76 fps=1.6 q=37.0 size=       1KiB time=00:00:00.62 bitrate=   7.2kbits/s speed=0.0128x elapsed=0:00:48.91    \nframe=   78 fps=1.6 q=43.0 size=       1KiB time=00:00:00.64 bitrate=   7.0kbits/s speed=0.013x elapsed=0:00:49.43    \nframe=   79 fps=1.6 q=42.0 size=       1KiB time=00:00:00.65 bitrate=   6.9kbits/s speed=0.013x elapsed=0:00:50.01    \nframe=   80 fps=1.6 q=42.0 size=       1KiB time=00:00:00.65 bitrate=   6.8kbits/s speed=0.013x elapsed=0:00:50.52    \nframe=   81 fps=1.6 q=33.0 size=       1KiB time=00:00:00.66 bitrate=   6.7kbits/s speed=0.0131x elapsed=0:00:51.07    \nframe=   82 fps=1.6 q=39.0 size=       1KiB time=00:00:00.67 bitrate=   6.6kbits/s speed=0.0131x elapsed=0:00:51.60    \nframe=   83 fps=1.6 q=39.0 size=       1KiB time=00:00:00.68 bitrate=   6.6kbits/s speed=0.0131x elapsed=0:00:52.14    \nframe=   85 fps=1.6 q=44.0 size=       1KiB time=00:00:00.69 bitrate=   6.5kbits/s speed=0.0131x elapsed=0:00:52.73    \nframe=   86 fps=1.6 q=38.0 size=       1KiB time=00:00:00.70 bitrate=   6.3kbits/s speed=0.0133x elapsed=0:00:53.35    \nframe=   86 fps=1.6 q=38.0 size=       1KiB time=00:00:00.70 bitrate=   6.3kbits/s speed=0.0131x elapsed=0:00:53.87    \nframe=   87 fps=1.6 q=41.0 size=       1KiB time=00:00:00.71 bitrate=   6.3kbits/s speed=0.0132x elapsed=0:00:54.39    \nframe=   89 fps=1.6 q=41.0 size=       1KiB time=00:00:00.72 bitrate=   6.2kbits/s speed=0.0132x elapsed=0:00:54.91    \nframe=   89 fps=1.6 q=41.0 size=       1KiB time=00:00:00.73 bitrate=   6.1kbits/s speed=0.0132x elapsed=0:00:55.51    \nframe=   90 fps=1.6 q=38.0 size=       1KiB time=00:00:00.74 bitrate=   6.0kbits/s speed=0.0132x elapsed=0:00:56.17    \nframe=   91 fps=1.6 q=41.0 size=       1KiB time=00:00:00.75 bitrate=   6.0kbits/s speed=0.0132x elapsed=0:00:56.80    \nframe=   91 fps=1.6 q=41.0 size=       1KiB time=00:00:00.75 bitrate=   6.0kbits/s speed=0.0131x elapsed=0:00:57.36    \nframe=   94 fps=1.6 q=38.0 size=       1KiB time=00:00:00.77 bitrate=   5.8kbits/s speed=0.0134x elapsed=0:00:57.90    \nframe=   96 fps=1.6 q=41.0 size=       1KiB time=00:00:00.79 bitrate=   5.7kbits/s speed=0.0135x elapsed=0:00:58.44    \nframe=   98 fps=1.7 q=41.0 size=       1KiB time=00:00:00.80 bitrate=   5.5kbits/s speed=0.0137x elapsed=0:00:58.96    \nframe=   99 fps=1.7 q=41.0 size=       1KiB time=00:00:00.81 bitrate=   5.5kbits/s speed=0.0137x elapsed=0:00:59.48    \nframe=  100 fps=1.7 q=38.0 size=       1KiB time=00:00:00.82 bitrate=   5.4kbits/s speed=0.0137x elapsed=0:01:00.00    \nframe=  102 fps=1.7 q=38.0 size=       1KiB time=00:00:00.84 bitrate=   5.3kbits/s speed=0.0139x elapsed=0:01:00.51    \nframe=  102 fps=1.7 q=38.0 size=       1KiB time=00:00:00.84 bitrate=   5.3kbits/s speed=0.0138x elapsed=0:01:01.03    \nframe=  105 fps=1.7 q=42.0 size=       1KiB time=00:00:00.86 bitrate=   5.2kbits/s speed=0.0141x elapsed=0:01:01.56    \nframe=  107 fps=1.7 q=42.0 size=       1KiB time=00:00:00.88 bitrate=   5.1kbits/s speed=0.0142x elapsed=0:01:02.08    \nframe=  110 fps=1.8 q=40.0 size=       1KiB time=00:00:00.90 bitrate=   4.9kbits/s speed=0.0145x elapsed=0:01:02.64    \nframe=  110 fps=1.7 q=40.0 size=       1KiB time=00:00:00.90 bitrate=   4.9kbits/s speed=0.0144x elapsed=0:01:03.17    \nframe=  112 fps=1.8 q=42.0 size=       1KiB time=00:00:00.92 bitrate=   4.8kbits/s speed=0.0145x elapsed=0:01:03.69    \nframe=  113 fps=1.8 q=33.0 size=       1KiB time=00:00:00.93 bitrate=   4.8kbits/s speed=0.0145x elapsed=0:01:04.20    \nframe=  113 fps=1.7 q=33.0 size=       1KiB time=00:00:00.93 bitrate=   4.8kbits/s speed=0.0144x elapsed=0:01:04.72    \nframe=  114 fps=1.7 q=42.0 size=       1KiB time=00:00:00.94 bitrate=   4.8kbits/s speed=0.0144x elapsed=0:01:05.23    \nframe=  116 fps=1.8 q=40.0 size=       1KiB time=00:00:00.95 bitrate=   4.7kbits/s speed=0.0146x elapsed=0:01:05.76    \nframe=  116 fps=1.8 q=40.0 size=       1KiB time=00:00:00.95 bitrate=   4.7kbits/s speed=0.0145x elapsed=0:01:06.27    \nframe=  117 fps=1.8 q=46.0 size=       1KiB time=00:00:00.96 bitrate=   4.6kbits/s speed=0.0145x elapsed=0:01:06.80    \nframe=  117 fps=1.7 q=46.0 size=       1KiB time=00:00:00.96 bitrate=   4.6kbits/s speed=0.0144x elapsed=0:01:07.31    \nframe=  118 fps=1.7 q=40.0 size=       1KiB time=00:00:00.97 bitrate=   4.6kbits/s speed=0.0144x elapsed=0:01:07.83    \nframe=  119 fps=1.7 q=42.0 size=       1KiB time=00:00:00.98 bitrate=   4.6kbits/s speed=0.0144x elapsed=0:01:08.36    \nframe=  120 fps=1.7 q=36.0 size=       1KiB time=00:00:00.99 bitrate=   4.5kbits/s speed=0.0144x elapsed=0:01:08.88    \nframe=  121 fps=1.7 q=42.0 size=       1KiB time=00:00:01.00 bitrate=   4.5kbits/s speed=0.0144x elapsed=0:01:09.41    \nframe=  122 fps=1.7 q=45.0 size=       1KiB time=00:00:01.00 bitrate=   4.4kbits/s speed=0.0144x elapsed=0:01:09.94    \nframe=  123 fps=1.7 q=42.0 size=       1KiB time=00:00:01.01 bitrate=   4.4kbits/s speed=0.0144x elapsed=0:01:10.45    \nframe=  124 fps=1.7 q=41.0 size=       1KiB time=00:00:01.02 bitrate=   4.4kbits/s speed=0.0144x elapsed=0:01:10.97    \nframe=  126 fps=1.8 q=41.0 size=       1KiB time=00:00:01.04 bitrate=   4.3kbits/s speed=0.0146x elapsed=0:01:11.48    \nframe=  126 fps=1.7 q=41.0 size=       1KiB time=00:00:01.04 bitrate=   4.3kbits/s speed=0.0145x elapsed=0:01:12.00    \nframe=  128 fps=1.8 q=42.0 size=       1KiB time=00:00:01.05 bitrate=   4.2kbits/s speed=0.0146x elapsed=0:01:12.51    \nframe=  130 fps=1.8 q=42.0 size=       1KiB time=00:00:01.07 bitrate=   4.2kbits/s speed=0.0147x elapsed=0:01:13.04    \nframe=  131 fps=1.8 q=42.0 size=       1KiB time=00:00:01.08 bitrate=   4.1kbits/s speed=0.0147x elapsed=0:01:13.55    \nframe=  133 fps=1.8 q=45.0 size=       1KiB time=00:00:01.10 bitrate=   4.1kbits/s speed=0.0148x elapsed=0:01:14.07    \nframe=  134 fps=1.8 q=41.0 size=       1KiB time=00:00:01.10 bitrate=   4.0kbits/s speed=0.0149x elapsed=0:01:14.59    \nframe=  134 fps=1.8 q=41.0 size=       1KiB time=00:00:01.10 bitrate=   4.0kbits/s speed=0.0148x elapsed=0:01:15.11    \nframe=  136 fps=1.8 q=41.0 size=       1KiB time=00:00:01.12 bitrate=   4.0kbits/s speed=0.0149x elapsed=0:01:15.63    \nframe=  138 fps=1.8 q=41.0 size=       1KiB time=00:00:01.14 bitrate=   3.9kbits/s speed=0.015x elapsed=0:01:16.15    \nframe=  138 fps=1.8 q=41.0 size=       1KiB time=00:00:01.14 bitrate=   3.9kbits/s speed=0.0149x elapsed=0:01:16.66    \nframe=  138 fps=1.8 q=41.0 size=       1KiB time=00:00:01.14 bitrate=   3.9kbits/s speed=0.0148x elapsed=0:01:17.19    \nframe=  140 fps=1.8 q=41.0 size=       1KiB time=00:00:01.15 bitrate=   3.9kbits/s speed=0.0148x elapsed=0:01:17.71    \nframe=  142 fps=1.8 q=40.0 size=       1KiB time=00:00:01.17 bitrate=   3.8kbits/s speed=0.015x elapsed=0:01:18.22    \nframe=  143 fps=1.8 q=41.0 size=       1KiB time=00:00:01.18 bitrate=   3.8kbits/s speed=0.015x elapsed=0:01:18.73    \nframe=  144 fps=1.8 q=41.0 size=       1KiB time=00:00:01.19 bitrate=   3.8kbits/s speed=0.015x elapsed=0:01:19.25    \nframe=  145 fps=1.8 q=34.0 size=       1KiB time=00:00:01.20 bitrate=   3.7kbits/s speed=0.015x elapsed=0:01:19.76    \nframe=  146 fps=1.8 q=42.0 size=       1KiB time=00:00:01.20 bitrate=   3.7kbits/s speed=0.0151x elapsed=0:01:20.28    \nframe=  147 fps=1.8 q=42.0 size=       1KiB time=00:00:01.21 bitrate=   3.7kbits/s speed=0.0151x elapsed=0:01:20.80    \nframe=  148 fps=1.8 q=41.0 size=       1KiB time=00:00:01.22 bitrate=   3.7kbits/s speed=0.0151x elapsed=0:01:21.31    \nframe=  149 fps=1.8 q=45.0 size=       1KiB time=00:00:01.23 bitrate=   3.6kbits/s speed=0.0151x elapsed=0:01:21.84    \nframe=  150 fps=1.8 q=41.0 size=       1KiB time=00:00:01.24 bitrate=   3.6kbits/s speed=0.0151x elapsed=0:01:22.37    \nframe=  150 fps=1.8 q=41.0 size=       1KiB time=00:00:01.24 bitrate=   3.6kbits/s speed=0.015x elapsed=0:01:22.89    \nframe=  151 fps=1.8 q=42.0 size=       1KiB time=00:00:01.25 bitrate=   3.6kbits/s speed=0.015x elapsed=0:01:23.41    \nframe=  153 fps=1.8 q=42.0 size=       1KiB time=00:00:01.26 bitrate=   3.5kbits/s speed=0.0151x elapsed=0:01:23.92    \nframe=  154 fps=1.8 q=41.0 size=       1KiB time=00:00:01.27 bitrate=   3.5kbits/s speed=0.0151x elapsed=0:01:24.44    \nframe=  155 fps=1.8 q=42.0 size=       1KiB time=00:00:01.28 bitrate=   3.5kbits/s speed=0.0151x elapsed=0:01:24.95    \nframe=  156 fps=1.8 q=41.0 size=       1KiB time=00:00:01.29 bitrate=   3.5kbits/s speed=0.0151x elapsed=0:01:25.46    \nframe=  158 fps=1.8 q=41.0 size=       1KiB time=00:00:01.30 bitrate=   3.4kbits/s speed=0.0152x elapsed=0:01:25.98    \nframe=  159 fps=1.8 q=42.0 size=       1KiB time=00:00:01.31 bitrate=   3.4kbits/s speed=0.0152x elapsed=0:01:26.50    \nframe=  160 fps=1.8 q=42.0 size=       1KiB time=00:00:01.32 bitrate=   3.4kbits/s speed=0.0152x elapsed=0:01:27.01    \nframe=  161 fps=1.8 q=34.0 size=       1KiB time=00:00:01.33 bitrate=   3.4kbits/s speed=0.0152x elapsed=0:01:27.53    \nframe=  161 fps=1.8 q=34.0 size=       1KiB time=00:00:01.33 bitrate=   3.4kbits/s speed=0.0151x elapsed=0:01:28.04    \nframe=  162 fps=1.8 q=42.0 size=       1KiB time=00:00:01.34 bitrate=   3.3kbits/s speed=0.0151x elapsed=0:01:28.56    \nframe=  162 fps=1.8 q=42.0 size=       1KiB time=00:00:01.34 bitrate=   3.3kbits/s speed=0.0151x elapsed=0:01:29.07    \nframe=  163 fps=1.8 q=43.0 size=       1KiB time=00:00:01.35 bitrate=   3.3kbits/s speed=0.0151x elapsed=0:01:29.59    \nframe=  165 fps=1.8 q=46.0 size=       1KiB time=00:00:01.36 bitrate=   3.3kbits/s speed=0.0152x elapsed=0:01:30.12    \nframe=  166 fps=1.8 q=42.0 size=       1KiB time=00:00:01.37 bitrate=   3.3kbits/s speed=0.0152x elapsed=0:01:30.65    \nframe=  168 fps=1.8 q=40.0 size=       1KiB time=00:00:01.39 bitrate=   3.2kbits/s speed=0.0153x elapsed=0:01:31.17    \nframe=  171 fps=1.9 q=43.0 size=       1KiB time=00:00:01.41 bitrate=   3.2kbits/s speed=0.0155x elapsed=0:01:31.68    \nframe=  175 fps=1.9 q=43.0 size=       1KiB time=00:00:01.45 bitrate=   3.1kbits/s speed=0.0157x elapsed=0:01:32.20    \nframe=  176 fps=1.9 q=42.0 size=       1KiB time=00:00:01.45 bitrate=   3.1kbits/s speed=0.0157x elapsed=0:01:32.71    \nframe=  177 fps=1.9 q=35.0 size=       1KiB time=00:00:01.46 bitrate=   3.1kbits/s speed=0.0157x elapsed=0:01:33.24    \nframe=  177 fps=1.9 q=35.0 size=       1KiB time=00:00:01.46 bitrate=   3.1kbits/s speed=0.0156x elapsed=0:01:33.75    \nframe=  178 fps=1.9 q=42.0 size=       1KiB time=00:00:01.47 bitrate=   3.0kbits/s speed=0.0156x elapsed=0:01:34.26    \nframe=  180 fps=1.9 q=41.0 size=       1KiB time=00:00:01.49 bitrate=   3.0kbits/s speed=0.0157x elapsed=0:01:34.78    \nframe=  181 fps=1.9 q=45.0 size=       1KiB time=00:00:01.50 bitrate=   3.0kbits/s speed=0.0157x elapsed=0:01:35.31    \nframe=  182 fps=1.9 q=41.0 size=       1KiB time=00:00:01.50 bitrate=   3.0kbits/s speed=0.0157x elapsed=0:01:35.83    \nframe=  182 fps=1.9 q=41.0 size=       1KiB time=00:00:01.50 bitrate=   3.0kbits/s speed=0.0157x elapsed=0:01:36.34    \nframe=  183 fps=1.9 q=42.0 size=       1KiB time=00:00:01.51 bitrate=   3.0kbits/s speed=0.0157x elapsed=0:01:36.87    \nframe=  184 fps=1.9 q=41.0 size=       1KiB time=00:00:01.52 bitrate=   2.9kbits/s speed=0.0157x elapsed=0:01:37.40    \nframe=  186 fps=1.9 q=41.0 size=       1KiB time=00:00:01.54 bitrate=   2.9kbits/s speed=0.0157x elapsed=0:01:37.90    \nframe=  186 fps=1.9 q=41.0 size=       1KiB time=00:00:01.54 bitrate=   2.9kbits/s speed=0.0157x elapsed=0:01:38.43    \nframe=  187 fps=1.9 q=42.0 size=       1KiB time=00:00:01.55 bitrate=   2.9kbits/s speed=0.0157x elapsed=0:01:38.96    \nframe=  188 fps=1.9 q=41.0 size=       1KiB time=00:00:01.55 bitrate=   2.9kbits/s speed=0.0157x elapsed=0:01:39.48    \nframe=  190 fps=1.9 q=40.0 size=       1KiB time=00:00:01.57 bitrate=   2.8kbits/s speed=0.0158x elapsed=0:01:39.99    \nframe=  190 fps=1.9 q=40.0 size=       1KiB time=00:00:01.57 bitrate=   2.8kbits/s speed=0.0157x elapsed=0:01:40.51    \nframe=  191 fps=1.9 q=40.0 size=       1KiB time=00:00:01.58 bitrate=   2.8kbits/s speed=0.0157x elapsed=0:01:41.04    \nframe=  193 fps=1.9 q=35.0 size=       1KiB time=00:00:01.60 bitrate=   2.8kbits/s speed=0.0158x elapsed=0:01:41.54    \nframe=  193 fps=1.9 q=35.0 size=       1KiB time=00:00:01.60 bitrate=   2.8kbits/s speed=0.0157x elapsed=0:01:42.06    \nframe=  196 fps=1.9 q=41.0 size=       1KiB time=00:00:01.62 bitrate=   2.8kbits/s speed=0.0158x elapsed=0:01:42.59    \nframe=  196 fps=1.9 q=41.0 size=       1KiB time=00:00:01.62 bitrate=   2.8kbits/s speed=0.0158x elapsed=0:01:43.10    \nframe=  197 fps=1.9 q=44.0 size=       1KiB time=00:00:01.63 bitrate=   2.7kbits/s speed=0.0158x elapsed=0:01:43.61    \nframe=  198 fps=1.9 q=41.0 size=       1KiB time=00:00:01.64 bitrate=   2.7kbits/s speed=0.0158x elapsed=0:01:44.13    \nframe=  198 fps=1.9 q=41.0 size=       1KiB time=00:00:01.64 bitrate=   2.7kbits/s speed=0.0157x elapsed=0:01:44.64    \nframe=  199 fps=1.9 q=42.0 size=       1KiB time=00:00:01.65 bitrate=   2.7kbits/s speed=0.0157x elapsed=0:01:45.16    \nframe=  201 fps=1.9 q=41.0 size=       1KiB time=00:00:01.66 bitrate=   2.7kbits/s speed=0.0158x elapsed=0:01:45.68    \nframe=  202 fps=1.9 q=41.0 size=       1KiB time=00:00:01.67 bitrate=   2.7kbits/s speed=0.0158x elapsed=0:01:46.20    \nframe=  202 fps=1.9 q=41.0 size=       1KiB time=00:00:01.67 bitrate=   2.7kbits/s speed=0.0157x elapsed=0:01:46.73    \nframe=  203 fps=1.9 q=42.0 size=       1KiB time=00:00:01.68 bitrate=   2.7kbits/s speed=0.0157x elapsed=0:01:47.23    \nframe=  204 fps=1.9 q=41.0 size=       1KiB time=00:00:01.69 bitrate=   2.6kbits/s speed=0.0157x elapsed=0:01:47.75    \nframe=  206 fps=1.9 q=40.0 size=       1KiB time=00:00:01.70 bitrate=   2.6kbits/s speed=0.0158x elapsed=0:01:48.26    \nframe=  207 fps=1.9 q=41.0 size=       1KiB time=00:00:01.71 bitrate=   2.6kbits/s speed=0.0158x elapsed=0:01:48.78    \nframe=  208 fps=1.9 q=41.0 size=       1KiB time=00:00:01.72 bitrate=   2.6kbits/s speed=0.0158x elapsed=0:01:49.30    \nframe=  209 fps=1.9 q=34.0 size=       1KiB time=00:00:01.73 bitrate=   2.6kbits/s speed=0.0158x elapsed=0:01:49.82    \nframe=  210 fps=1.9 q=42.0 size=       1KiB time=00:00:01.74 bitrate=   2.6kbits/s speed=0.0158x elapsed=0:01:50.33    \nframe=  211 fps=1.9 q=43.0 size=       1KiB time=00:00:01.75 bitrate=   2.6kbits/s speed=0.0158x elapsed=0:01:50.84    \nframe=  212 fps=1.9 q=41.0 size=       1KiB time=00:00:01.75 bitrate=   2.5kbits/s speed=0.0158x elapsed=0:01:51.37    \nframe=  213 fps=1.9 q=46.0 size=       1KiB time=00:00:01.76 bitrate=   2.5kbits/s speed=0.0158x elapsed=0:01:51.89    \nframe=  214 fps=1.9 q=41.0 size=       1KiB time=00:00:01.77 bitrate=   2.5kbits/s speed=0.0158x elapsed=0:01:52.43    \nframe=  214 fps=1.9 q=41.0 size=       1KiB time=00:00:01.77 bitrate=   2.5kbits/s speed=0.0157x elapsed=0:01:52.94    \nframe=  215 fps=1.9 q=43.0 size=       1KiB time=00:00:01.78 bitrate=   2.5kbits/s speed=0.0157x elapsed=0:01:53.46    \nframe=  216 fps=1.9 q=41.0 size=       1KiB time=00:00:01.79 bitrate=   2.5kbits/s speed=0.0157x elapsed=0:01:53.97    \nframe=  218 fps=1.9 q=41.0 size=       1KiB time=00:00:01.80 bitrate=   2.5kbits/s speed=0.0158x elapsed=0:01:54.48    \nframe=  219 fps=1.9 q=42.0 size=       1KiB time=00:00:01.81 bitrate=   2.5kbits/s speed=0.0158x elapsed=0:01:54.99    \nframe=  220 fps=1.9 q=41.0 size=       1KiB time=00:00:01.82 bitrate=   2.5kbits/s speed=0.0158x elapsed=0:01:55.52    \nframe=  222 fps=1.9 q=41.0 size=       1KiB time=00:00:01.84 bitrate=   2.4kbits/s speed=0.0159x elapsed=0:01:56.04    \nframe=  222 fps=1.9 q=41.0 size=       1KiB time=00:00:01.84 bitrate=   2.4kbits/s speed=0.0158x elapsed=0:01:56.55    \nframe=  224 fps=1.9 q=42.0 size=       1KiB time=00:00:01.85 bitrate=   2.4kbits/s speed=0.0159x elapsed=0:01:57.06    \nframe=  225 fps=1.9 q=35.0 size=       1KiB time=00:00:01.86 bitrate=   2.4kbits/s speed=0.0159x elapsed=0:01:57.58    \nframe=  225 fps=1.9 q=35.0 size=       1KiB time=00:00:01.86 bitrate=   2.4kbits/s speed=0.0158x elapsed=0:01:58.09    \nframe=  226 fps=1.9 q=42.0 size=       1KiB time=00:00:01.87 bitrate=   2.4kbits/s speed=0.0158x elapsed=0:01:58.60    \nframe=  227 fps=1.9 q=42.0 size=       1KiB time=00:00:01.88 bitrate=   2.4kbits/s speed=0.0158x elapsed=0:01:59.13    \nframe=  228 fps=1.9 q=41.0 size=       1KiB time=00:00:01.89 bitrate=   2.4kbits/s speed=0.0158x elapsed=0:01:59.66    \nframe=  229 fps=1.9 q=45.0 size=       1KiB time=00:00:01.90 bitrate=   2.4kbits/s speed=0.0158x elapsed=0:02:00.17    \nframe=  229 fps=1.9 q=45.0 size=       1KiB time=00:00:01.90 bitrate=   2.4kbits/s speed=0.0157x elapsed=0:02:00.69    \nframe=  230 fps=1.9 q=41.0 size=       1KiB time=00:00:01.90 bitrate=   2.3kbits/s speed=0.0157x elapsed=0:02:01.21    \nframe=  230 fps=1.9 q=41.0 size=       1KiB time=00:00:01.90 bitrate=   2.3kbits/s speed=0.0157x elapsed=0:02:01.74    \nframe=  230 fps=1.9 q=41.0 size=       1KiB time=00:00:01.90 bitrate=   2.3kbits/s speed=0.0156x elapsed=0:02:02.25    \nframe=  231 fps=1.9 q=42.0 size=       1KiB time=00:00:01.91 bitrate=   2.3kbits/s speed=0.0156x elapsed=0:02:02.76    \nframe=  232 fps=1.9 q=41.0 size=       1KiB time=00:00:01.92 bitrate=   2.3kbits/s speed=0.0156x elapsed=0:02:03.29    \nframe=  233 fps=1.9 q=42.0 size=       1KiB time=00:00:01.93 bitrate=   2.3kbits/s speed=0.0156x elapsed=0:02:03.80    \nframe=  234 fps=1.9 q=41.0 size=       1KiB time=00:00:01.94 bitrate=   2.3kbits/s speed=0.0156x elapsed=0:02:04.33    \nframe=  234 fps=1.9 q=41.0 size=       1KiB time=00:00:01.94 bitrate=   2.3kbits/s speed=0.0156x elapsed=0:02:04.85    \nframe=  235 fps=1.9 q=42.0 size=       1KiB time=00:00:01.95 bitrate=   2.3kbits/s speed=0.0156x elapsed=0:02:05.36    \nframe=  235 fps=1.9 q=42.0 size=       1KiB time=00:00:01.95 bitrate=   2.3kbits/s speed=0.0155x elapsed=0:02:05.87    \nframe=  237 fps=1.9 q=45.0 size=       1KiB time=00:00:01.96 bitrate=   2.3kbits/s speed=0.0156x elapsed=0:02:06.40    \nframe=  238 fps=1.9 q=40.0 size=       1KiB time=00:00:01.97 bitrate=   2.3kbits/s speed=0.0156x elapsed=0:02:06.93    \nframe=  239 fps=1.9 q=41.0 size=       1KiB time=00:00:01.98 bitrate=   2.3kbits/s speed=0.0156x elapsed=0:02:07.44    \nframe=  241 fps=1.9 q=35.0 size=       1KiB time=00:00:02.00 bitrate=   2.2kbits/s speed=0.0156x elapsed=0:02:07.95    \nframe=  242 fps=1.9 q=42.0 size=       1KiB time=00:00:02.00 bitrate=   2.2kbits/s speed=0.0156x elapsed=0:02:08.46    \nframe=  244 fps=1.9 q=41.0 size=       1KiB time=00:00:02.02 bitrate=   2.2kbits/s speed=0.0157x elapsed=0:02:08.98    \nframe=  245 fps=1.9 q=46.0 size=       1KiB time=00:00:02.03 bitrate=   2.2kbits/s speed=0.0157x elapsed=0:02:09.51    \nframe=  245 fps=1.9 q=46.0 size=       1KiB time=00:00:02.03 bitrate=   2.2kbits/s speed=0.0156x elapsed=0:02:10.01    \nframe=  246 fps=1.9 q=40.0 size=       1KiB time=00:00:02.04 bitrate=   2.2kbits/s speed=0.0156x elapsed=0:02:10.53    \nframe=  247 fps=1.9 q=41.0 size=       1KiB time=00:00:02.05 bitrate=   2.2kbits/s speed=0.0156x elapsed=0:02:11.07    \nframe=  247 fps=1.9 q=41.0 size=       1KiB time=00:00:02.05 bitrate=   2.2kbits/s speed=0.0156x elapsed=0:02:11.60    \nframe=  249 fps=1.9 q=42.0 size=       1KiB time=00:00:02.06 bitrate=   2.2kbits/s speed=0.0156x elapsed=0:02:12.11    \nframe=  250 fps=1.9 q=41.0 size=       1KiB time=00:00:02.07 bitrate=   2.2kbits/s speed=0.0156x elapsed=0:02:12.63    \nframe=  251 fps=1.9 q=43.0 size=       1KiB time=00:00:02.08 bitrate=   2.2kbits/s speed=0.0156x elapsed=0:02:13.15    \nframe=  252 fps=1.9 q=41.0 size=       1KiB time=00:00:02.09 bitrate=   2.1kbits/s speed=0.0156x elapsed=0:02:13.68    \nframe=  253 fps=1.9 q=46.0 size=       1KiB time=00:00:02.10 bitrate=   2.1kbits/s speed=0.0156x elapsed=0:02:14.19    \nframe=  254 fps=1.9 q=41.0 size=       1KiB time=00:00:02.10 bitrate=   2.1kbits/s speed=0.0157x elapsed=0:02:14.70    \nframe=  254 fps=1.9 q=41.0 size=       1KiB time=00:00:02.10 bitrate=   2.1kbits/s speed=0.0156x elapsed=0:02:15.23    \nframe=  256 fps=1.9 q=42.0 size=       1KiB time=00:00:02.12 bitrate=   2.1kbits/s speed=0.0157x elapsed=0:02:15.74    \nframe=  256 fps=1.9 q=42.0 size=       1KiB time=00:00:02.12 bitrate=   2.1kbits/s speed=0.0156x elapsed=0:02:16.27    \nframe=  257 fps=1.9 q=35.0 size=       1KiB time=00:00:02.13 bitrate=   2.1kbits/s speed=0.0156x elapsed=0:02:16.78    \nframe=  257 fps=1.9 q=35.0 size=       1KiB time=00:00:02.13 bitrate=   2.1kbits/s speed=0.0155x elapsed=0:02:17.30    \nframe=  258 fps=1.9 q=42.0 size=       1KiB time=00:00:02.14 bitrate=   2.1kbits/s speed=0.0155x elapsed=0:02:17.81    \nframe=  259 fps=1.9 q=42.0 size=       1KiB time=00:00:02.15 bitrate=   2.1kbits/s speed=0.0155x elapsed=0:02:18.34    \nframe=  260 fps=1.9 q=41.0 size=       1KiB time=00:00:02.15 bitrate=   2.1kbits/s speed=0.0155x elapsed=0:02:18.87    \nframe=  262 fps=1.9 q=41.0 size=       1KiB time=00:00:02.17 bitrate=   2.1kbits/s speed=0.0156x elapsed=0:02:19.38    \nframe=  264 fps=1.9 q=41.0 size=       1KiB time=00:00:02.19 bitrate=   2.0kbits/s speed=0.0157x elapsed=0:02:19.89    \nframe=  265 fps=1.9 q=42.0 size=       1KiB time=00:00:02.20 bitrate=   2.0kbits/s speed=0.0157x elapsed=0:02:20.41    \nframe=  266 fps=1.9 q=41.0 size=       1KiB time=00:00:02.20 bitrate=   2.0kbits/s speed=0.0157x elapsed=0:02:20.92    \nframe=  268 fps=1.9 q=41.0 size=       1KiB time=00:00:02.22 bitrate=   2.0kbits/s speed=0.0157x elapsed=0:02:21.44    \nframe=  269 fps=1.9 q=46.0 size=       1KiB time=00:00:02.23 bitrate=   2.0kbits/s speed=0.0157x elapsed=0:02:21.96    \nframe=  270 fps=1.9 q=40.0 size=       1KiB time=00:00:02.24 bitrate=   2.0kbits/s speed=0.0157x elapsed=0:02:22.49    \nframe=  271 fps=1.9 q=41.0 size=       1KiB time=00:00:02.25 bitrate=   2.0kbits/s speed=0.0157x elapsed=0:02:23.00    \nframe=  272 fps=1.9 q=41.0 size=       1KiB time=00:00:02.25 bitrate=   2.0kbits/s speed=0.0157x elapsed=0:02:23.52    \nframe=  273 fps=1.9 q=35.0 size=       1KiB time=00:00:02.26 bitrate=   2.0kbits/s speed=0.0157x elapsed=0:02:24.03    \nframe=  273 fps=1.9 q=35.0 size=       1KiB time=00:00:02.26 bitrate=   2.0kbits/s speed=0.0157x elapsed=0:02:24.55    \nframe=  274 fps=1.9 q=42.0 size=       1KiB time=00:00:02.27 bitrate=   2.0kbits/s speed=0.0157x elapsed=0:02:25.07    \nframe=  275 fps=1.9 q=42.0 size=       1KiB time=00:00:02.28 bitrate=   2.0kbits/s speed=0.0157x elapsed=0:02:25.60    \nframe=  275 fps=1.9 q=42.0 size=       1KiB time=00:00:02.28 bitrate=   2.0kbits/s speed=0.0156x elapsed=0:02:26.12    \nframe=  276 fps=1.9 q=40.0 size=       1KiB time=00:00:02.29 bitrate=   2.0kbits/s speed=0.0156x elapsed=0:02:26.64    \nframe=  277 fps=1.9 q=45.0 size=       1KiB time=00:00:02.30 bitrate=   1.9kbits/s speed=0.0156x elapsed=0:02:27.15    \nframe=  278 fps=1.9 q=40.0 size=       1KiB time=00:00:02.30 bitrate=   1.9kbits/s speed=0.0156x elapsed=0:02:27.68    \nframe=  278 fps=1.9 q=40.0 size=       1KiB time=00:00:02.30 bitrate=   1.9kbits/s speed=0.0156x elapsed=0:02:28.21    \nframe=  279 fps=1.9 q=42.0 size=       1KiB time=00:00:02.31 bitrate=   1.9kbits/s speed=0.0156x elapsed=0:02:28.73    \nframe=  281 fps=1.9 q=43.0 size=       1KiB time=00:00:02.33 bitrate=   1.9kbits/s speed=0.0156x elapsed=0:02:29.25    \nframe=  282 fps=1.9 q=40.0 size=       1KiB time=00:00:02.34 bitrate=   1.9kbits/s speed=0.0156x elapsed=0:02:29.79    \nframe=  283 fps=1.9 q=42.0 size=       1KiB time=00:00:02.35 bitrate=   1.9kbits/s speed=0.0156x elapsed=0:02:30.31    \nframe=  284 fps=1.9 q=40.0 size=       1KiB time=00:00:02.35 bitrate=   1.9kbits/s speed=0.0156x elapsed=0:02:30.82    \nframe=  286 fps=1.9 q=40.0 size=       1KiB time=00:00:02.37 bitrate=   1.9kbits/s speed=0.0157x elapsed=0:02:31.34    \nframe=  287 fps=1.9 q=42.0 size=       1KiB time=00:00:02.38 bitrate=   1.9kbits/s speed=0.0157x elapsed=0:02:31.87    \nframe=  289 fps=1.9 q=35.0 size=       1KiB time=00:00:02.40 bitrate=   1.9kbits/s speed=0.0157x elapsed=0:02:32.38    \nframe=  289 fps=1.9 q=35.0 size=       1KiB time=00:00:02.40 bitrate=   1.9kbits/s speed=0.0157x elapsed=0:02:32.90    \nframe=  289 fps=1.9 q=35.0 size=       1KiB time=00:00:02.40 bitrate=   1.9kbits/s speed=0.0156x elapsed=0:02:33.42    \nframe=  291 fps=1.9 q=42.0 size=       1KiB time=00:00:02.41 bitrate=   1.9kbits/s speed=0.0157x elapsed=0:02:33.94    \nframe=  292 fps=1.9 q=40.0 size=       1KiB time=00:00:02.42 bitrate=   1.8kbits/s speed=0.0157x elapsed=0:02:34.45    \nframe=  292 fps=1.9 q=40.0 size=       1KiB time=00:00:02.42 bitrate=   1.8kbits/s speed=0.0156x elapsed=0:02:34.97    \nframe=  293 fps=1.9 q=46.0 size=       1KiB time=00:00:02.43 bitrate=   1.8kbits/s speed=0.0156x elapsed=0:02:35.48    \nframe=  293 fps=1.9 q=46.0 size=       1KiB time=00:00:02.43 bitrate=   1.8kbits/s speed=0.0156x elapsed=0:02:36.01    \nframe=  294 fps=1.9 q=40.0 size=       1KiB time=00:00:02.44 bitrate=   1.8kbits/s speed=0.0156x elapsed=0:02:36.54    \nframe=  294 fps=1.9 q=40.0 size=       1KiB time=00:00:02.44 bitrate=   1.8kbits/s speed=0.0155x elapsed=0:02:37.05    \nframe=  295 fps=1.9 q=42.0 size=       1KiB time=00:00:02.45 bitrate=   1.8kbits/s speed=0.0155x elapsed=0:02:37.56    \nframe=  297 fps=1.9 q=44.0 size=       1KiB time=00:00:02.46 bitrate=   1.8kbits/s speed=0.0156x elapsed=0:02:38.07    \nframe=  298 fps=1.9 q=41.0 size=       1KiB time=00:00:02.47 bitrate=   1.8kbits/s speed=0.0156x elapsed=0:02:38.60    \nframe=  300 fps=1.9 q=42.0 size=       1KiB time=00:00:02.49 bitrate=   1.8kbits/s speed=0.0157x elapsed=0:02:39.11    \nframe=  302 fps=1.9 q=41.0 size=       1KiB time=00:00:02.50 bitrate=   1.8kbits/s speed=0.0157x elapsed=0:02:39.64    \nframe=  303 fps=1.9 q=43.0 size=       1KiB time=00:00:02.51 bitrate=   1.8kbits/s speed=0.0157x elapsed=0:02:40.16    \nframe=  304 fps=1.9 q=43.0 size=       1KiB time=00:00:02.52 bitrate=   1.8kbits/s speed=0.0157x elapsed=0:02:40.68    \nframe=  305 fps=1.9 q=36.0 size=       1KiB time=00:00:02.53 bitrate=   1.8kbits/s speed=0.0157x elapsed=0:02:41.18    \nframe=  305 fps=1.9 q=36.0 size=       1KiB time=00:00:02.53 bitrate=   1.8kbits/s speed=0.0157x elapsed=0:02:41.71    \nframe=  306 fps=1.9 q=43.0 size=       1KiB time=00:00:02.54 bitrate=   1.8kbits/s speed=0.0157x elapsed=0:02:42.21    \nframe=  307 fps=1.9 q=43.0 size=       1KiB time=00:00:02.55 bitrate=   1.8kbits/s speed=0.0157x elapsed=0:02:42.73    \nframe=  308 fps=1.9 q=41.0 size=       1KiB time=00:00:02.55 bitrate=   1.8kbits/s speed=0.0157x elapsed=0:02:43.25    \nframe=  308 fps=1.9 q=41.0 size=       1KiB time=00:00:02.55 bitrate=   1.8kbits/s speed=0.0156x elapsed=0:02:43.77    \nframe=  308 fps=1.9 q=41.0 size=       1KiB time=00:00:02.55 bitrate=   1.8kbits/s speed=0.0156x elapsed=0:02:44.28    \nframe=  309 fps=1.9 q=47.0 size=       1KiB time=00:00:02.56 bitrate=   1.7kbits/s speed=0.0156x elapsed=0:02:44.79    \nframe=  310 fps=1.9 q=41.0 size=       1KiB time=00:00:02.56 bitrate=   1.7kbits/s speed=0.0155x elapsed=0:02:45.34    \nframe=  310 fps=1.9 q=41.0 size=       1KiB time=00:00:02.57 bitrate=   1.7kbits/s speed=0.0155x elapsed=0:02:45.89    \nframe=  312 fps=1.9 q=37.0 size=       1KiB time=00:00:02.59 bitrate=   1.7kbits/s speed=0.0156x elapsed=0:02:46.45    \nframe=  314 fps=1.9 q=52.0 size=       1KiB time=00:00:02.60 bitrate=   1.7kbits/s speed=0.0156x elapsed=0:02:47.01    \nframe=  314 fps=1.9 q=52.0 size=       1KiB time=00:00:02.60 bitrate=   1.7kbits/s speed=0.0156x elapsed=0:02:47.59    \nframe=  316 fps=1.9 q=42.0 size=       1KiB time=00:00:02.61 bitrate=   1.7kbits/s speed=0.0156x elapsed=0:02:48.18    \nframe=  317 fps=1.9 q=47.0 size=       1KiB time=00:00:02.63 bitrate=   1.7kbits/s speed=0.0156x elapsed=0:02:48.76    \nframe=  318 fps=1.9 q=43.0 size=       1KiB time=00:00:02.64 bitrate=   1.7kbits/s speed=0.0156x elapsed=0:02:49.32    \nframe=  320 fps=1.9 q=44.0 size=       1KiB time=00:00:02.65 bitrate=   1.7kbits/s speed=0.0156x elapsed=0:02:49.87    \nframe=  321 fps=1.9 q=36.0 size=       1KiB time=00:00:02.66 bitrate=   1.7kbits/s speed=0.0156x elapsed=0:02:50.41    \nframe=  322 fps=1.9 q=44.0 size=       1KiB time=00:00:02.67 bitrate=   1.7kbits/s speed=0.0156x elapsed=0:02:50.95    \nframe=  325 fps=1.9 q=47.0 size=       1KiB time=00:00:02.70 bitrate=   1.7kbits/s speed=0.0157x elapsed=0:02:51.51    \nframe=  325 fps=1.9 q=47.0 size=       1KiB time=00:00:02.70 bitrate=   1.7kbits/s speed=0.0157x elapsed=0:02:52.06    \nframe=  326 fps=1.9 q=43.0 size=       1KiB time=00:00:02.70 bitrate=   1.7kbits/s speed=0.0157x elapsed=0:02:52.62    \nframe=  326 fps=1.9 q=43.0 size=       1KiB time=00:00:02.70 bitrate=   1.7kbits/s speed=0.0156x elapsed=0:02:53.21    \nframe=  328 fps=1.9 q=43.0 size=       1KiB time=00:00:02.72 bitrate=   1.6kbits/s speed=0.0157x elapsed=0:02:53.77    \nframe=  329 fps=1.9 q=46.0 size=       1KiB time=00:00:02.73 bitrate=   1.6kbits/s speed=0.0157x elapsed=0:02:54.32    \nframe=  330 fps=1.9 q=43.0 size=       1KiB time=00:00:02.74 bitrate=   1.6kbits/s speed=0.0157x elapsed=0:02:54.88    \nframe=  331 fps=1.9 q=44.0 size=       1KiB time=00:00:02.75 bitrate=   1.6kbits/s speed=0.0157x elapsed=0:02:55.46    \nframe=  332 fps=1.9 q=44.0 size=       1KiB time=00:00:02.75 bitrate=   1.6kbits/s speed=0.0157x elapsed=0:02:56.04    \nframe=  334 fps=1.9 q=43.0 size=       1KiB time=00:00:02.77 bitrate=   1.6kbits/s speed=0.0157x elapsed=0:02:56.61    \nframe=  336 fps=1.9 q=44.0 size=       1KiB time=00:00:02.78 bitrate=   1.6kbits/s speed=0.0157x elapsed=0:02:57.17    \nframe=  337 fps=1.9 q=36.0 size=       1KiB time=00:00:02.80 bitrate=   1.6kbits/s speed=0.0158x elapsed=0:02:57.73    \nframe=  338 fps=1.9 q=45.0 size=       1KiB time=00:00:02.80 bitrate=   1.6kbits/s speed=0.0157x elapsed=0:02:58.30    \nframe=  340 fps=1.9 q=43.0 size=       1KiB time=00:00:02.82 bitrate=   1.6kbits/s speed=0.0158x elapsed=0:02:58.89    \nframe=  342 fps=1.9 q=43.0 size=       1KiB time=00:00:02.83 bitrate=   1.6kbits/s speed=0.0158x elapsed=0:02:59.45    \nframe=  342 fps=1.9 q=43.0 size=       1KiB time=00:00:02.84 bitrate=   1.6kbits/s speed=0.0158x elapsed=0:03:00.02    \nframe=  346 fps=1.9 q=43.0 size=       1KiB time=00:00:02.86 bitrate=   1.6kbits/s speed=0.0159x elapsed=0:03:00.62    \nframe=  348 fps=1.9 q=43.0 size=       1KiB time=00:00:02.88 bitrate=   1.6kbits/s speed=0.0159x elapsed=0:03:01.18    \nframe=  350 fps=1.9 q=43.0 size=       1KiB time=00:00:02.90 bitrate=   1.5kbits/s speed=0.016x elapsed=0:03:01.74    \nframe=  351 fps=1.9 q=44.0 size=       1KiB time=00:00:02.91 bitrate=   1.5kbits/s speed=0.016x elapsed=0:03:02.29    \nframe=  352 fps=1.9 q=44.0 size=       1KiB time=00:00:02.92 bitrate=   1.5kbits/s speed=0.016x elapsed=0:03:02.87    \nframe=  353 fps=1.9 q=36.0 size=       1KiB time=00:00:02.93 bitrate=   1.5kbits/s speed=0.016x elapsed=0:03:03.43    \nframe=  354 fps=1.9 q=44.0 size=       1KiB time=00:00:02.94 bitrate=   1.5kbits/s speed=0.016x elapsed=0:03:03.98    \nframe=  355 fps=1.9 q=44.0 size=       1KiB time=00:00:02.95 bitrate=   1.5kbits/s speed=0.016x elapsed=0:03:04.55    \nframe=  357 fps=1.9 q=47.0 size=       1KiB time=00:00:02.96 bitrate=   1.5kbits/s speed=0.016x elapsed=0:03:05.12    \nframe=  358 fps=1.9 q=43.0 size=       1KiB time=00:00:02.97 bitrate=   1.5kbits/s speed=0.016x elapsed=0:03:05.70    \nframe=  360 fps=1.9 q=43.0 size=       1KiB time=00:00:02.98 bitrate=   1.5kbits/s speed=0.016x elapsed=0:03:06.31    \nframe=  361 fps=1.9 q=46.0 size=       1KiB time=00:00:03.00 bitrate=   1.5kbits/s speed=0.0161x elapsed=0:03:06.87    \nframe=  362 fps=1.9 q=43.0 size=       1KiB time=00:00:03.00 bitrate=   1.5kbits/s speed=0.016x elapsed=0:03:07.46    \nframe=  363 fps=1.9 q=44.0 size=       1KiB time=00:00:03.01 bitrate=   1.5kbits/s speed=0.016x elapsed=0:03:08.02    \nframe=  366 fps=1.9 q=43.0 size=       1KiB time=00:00:03.03 bitrate=   1.5kbits/s speed=0.0161x elapsed=0:03:08.60    \nframe=  366 fps=1.9 q=43.0 size=       1KiB time=00:00:03.04 bitrate=   1.5kbits/s speed=0.0161x elapsed=0:03:09.18    \nframe=  368 fps=1.9 q=44.0 size=       1KiB time=00:00:03.05 bitrate=   1.5kbits/s speed=0.0161x elapsed=0:03:09.76    \nframe=  369 fps=1.9 q=37.0 size=       1KiB time=00:00:03.06 bitrate=   1.5kbits/s speed=0.0161x elapsed=0:03:10.34    \nframe=  371 fps=1.9 q=45.0 size=       1KiB time=00:00:03.08 bitrate=   1.5kbits/s speed=0.0162x elapsed=0:03:10.89    \nframe=  372 fps=1.9 q=43.0 size=       1KiB time=00:00:03.09 bitrate=   1.4kbits/s speed=0.0161x elapsed=0:03:11.46    \nframe=  372 fps=1.9 q=43.0 size=       1KiB time=00:00:03.09 bitrate=   1.4kbits/s speed=0.0161x elapsed=0:03:12.05    \nframe=  373 fps=1.9 q=49.0 size=       1KiB time=00:00:03.10 bitrate=   1.4kbits/s speed=0.0161x elapsed=0:03:12.62    \nframe=  373 fps=1.9 q=49.0 size=       1KiB time=00:00:03.10 bitrate=   1.4kbits/s speed=0.016x elapsed=0:03:13.20    \nframe=  374 fps=1.9 q=43.0 size=       1KiB time=00:00:03.10 bitrate=   1.4kbits/s speed=0.016x elapsed=0:03:13.77    \nframe=  374 fps=1.9 q=43.0 size=       1KiB time=00:00:03.10 bitrate=   1.4kbits/s speed=0.016x elapsed=0:03:14.34    \nframe=  377 fps=1.9 q=46.0 size=       1KiB time=00:00:03.13 bitrate=   1.4kbits/s speed=0.0161x elapsed=0:03:14.89    \nframe=  378 fps=1.9 q=51.0 size=       1KiB time=00:00:03.14 bitrate=   1.4kbits/s speed=0.0161x elapsed=0:03:15.44    \nframe=  379 fps=1.9 q=46.0 size=       1KiB time=00:00:03.15 bitrate=   1.4kbits/s speed=0.0161x elapsed=0:03:16.01    \nframe=  383 fps=1.9 q=45.0 size=       1KiB time=00:00:03.18 bitrate=   1.4kbits/s speed=0.0162x elapsed=0:03:16.55    \nframe=  385 fps=2.0 q=36.0 size=       1KiB time=00:00:03.20 bitrate=   1.4kbits/s speed=0.0162x elapsed=0:03:17.11    \nframe=  387 fps=2.0 q=46.0 size=       1KiB time=00:00:03.21 bitrate=   1.4kbits/s speed=0.0163x elapsed=0:03:17.67    \nframe=  388 fps=2.0 q=45.0 size=       1KiB time=00:00:03.22 bitrate=   1.4kbits/s speed=0.0163x elapsed=0:03:18.21    \nframe=  390 fps=2.0 q=45.0 size=       1KiB time=00:00:03.24 bitrate=   1.4kbits/s speed=0.0163x elapsed=0:03:18.79    \nframe=  391 fps=2.0 q=46.0 size=       1KiB time=00:00:03.24 bitrate=   1.4kbits/s speed=0.0163x elapsed=0:03:19.34    \nframe=  393 fps=2.0 q=46.0 size=       1KiB time=00:00:03.25 bitrate=   1.4kbits/s speed=0.0163x elapsed=0:03:19.90    \nframe=  394 fps=2.0 q=44.0 size=       1KiB time=00:00:03.27 bitrate=   1.4kbits/s speed=0.0163x elapsed=0:03:20.45    \nframe=  396 fps=2.0 q=44.0 size=       1KiB time=00:00:03.29 bitrate=   1.4kbits/s speed=0.0164x elapsed=0:03:21.01    \nframe=  398 fps=2.0 q=44.0 size=       1KiB time=00:00:03.30 bitrate=   1.4kbits/s speed=0.0164x elapsed=0:03:21.58    \nframe=  400 fps=2.0 q=45.0 size=       1KiB time=00:00:03.32 bitrate=   1.3kbits/s speed=0.0165x elapsed=0:03:22.12    \nframe=  402 fps=2.0 q=46.0 size=       1KiB time=00:00:03.33 bitrate=   1.3kbits/s speed=0.0164x elapsed=0:03:22.66    \nframe=  403 fps=2.0 q=46.0 size=       1KiB time=00:00:03.35 bitrate=   1.3kbits/s speed=0.0165x elapsed=0:03:23.22    \nframe=  405 fps=2.0 q=48.0 size=       1KiB time=00:00:03.36 bitrate=   1.3kbits/s speed=0.0165x elapsed=0:03:23.77    \nframe=  406 fps=2.0 q=45.0 size=       1KiB time=00:00:03.37 bitrate=   1.3kbits/s speed=0.0165x elapsed=0:03:24.32    \nframe=  408 fps=2.0 q=45.0 size=       1KiB time=00:00:03.38 bitrate=   1.3kbits/s speed=0.0165x elapsed=0:03:24.90    \nframe=  410 fps=2.0 q=45.0 size=       1KiB time=00:00:03.40 bitrate=   1.3kbits/s speed=0.0166x elapsed=0:03:25.48    \nframe=  411 fps=2.0 q=46.0 size=       1KiB time=00:00:03.40 bitrate=   1.3kbits/s speed=0.0165x elapsed=0:03:26.05    \nframe=  413 fps=2.0 q=48.0 size=       1KiB time=00:00:03.43 bitrate=   1.3kbits/s speed=0.0166x elapsed=0:03:26.60    \nframe=  414 fps=2.0 q=45.0 size=       1KiB time=00:00:03.44 bitrate=   1.3kbits/s speed=0.0166x elapsed=0:03:27.17    \nframe=  414 fps=2.0 q=45.0 size=       1KiB time=00:00:03.44 bitrate=   1.3kbits/s speed=0.0166x elapsed=0:03:27.73    \nframe=  416 fps=2.0 q=46.0 size=       1KiB time=00:00:03.45 bitrate=   1.3kbits/s speed=0.0166x elapsed=0:03:28.28    \nframe=  417 fps=2.0 q=36.0 size=       1KiB time=00:00:03.46 bitrate=   1.3kbits/s speed=0.0166x elapsed=0:03:28.85    \nframe=  417 fps=2.0 q=36.0 size=       1KiB time=00:00:03.46 bitrate=   1.3kbits/s speed=0.0166x elapsed=0:03:29.43    \nframe=  419 fps=2.0 q=45.0 size=       1KiB time=00:00:03.48 bitrate=   1.3kbits/s speed=0.0166x elapsed=0:03:30.00    \nframe=  421 fps=2.0 q=47.0 size=       1KiB time=00:00:03.50 bitrate=   1.3kbits/s speed=0.0166x elapsed=0:03:30.56    \nframe=  421 fps=2.0 q=47.0 size=       1KiB time=00:00:03.50 bitrate=   1.3kbits/s speed=0.0166x elapsed=0:03:31.11    \nframe=  422 fps=2.0 q=44.0 size=       1KiB time=00:00:03.50 bitrate=   1.3kbits/s speed=0.0166x elapsed=0:03:31.69    \nframe=  423 fps=2.0 q=45.0 size=       1KiB time=00:00:03.51 bitrate=   1.3kbits/s speed=0.0166x elapsed=0:03:32.27    \nframe=  424 fps=2.0 q=44.0 size=       1KiB time=00:00:03.52 bitrate=   1.3kbits/s speed=0.0166x elapsed=0:03:32.83    \nframe=  426 fps=2.0 q=44.0 size=       1KiB time=00:00:03.54 bitrate=   1.3kbits/s speed=0.0166x elapsed=0:03:33.41    \nframe=  428 fps=2.0 q=44.0 size=       1KiB time=00:00:03.55 bitrate=   1.3kbits/s speed=0.0166x elapsed=0:03:33.99    \nframe=  430 fps=2.0 q=44.0 size=       1KiB time=00:00:03.57 bitrate=   1.3kbits/s speed=0.0167x elapsed=0:03:34.56    \nframe=  431 fps=2.0 q=45.0 size=       1KiB time=00:00:03.58 bitrate=   1.3kbits/s speed=0.0167x elapsed=0:03:35.13    \nframe=  433 fps=2.0 q=36.0 size=       1KiB time=00:00:03.60 bitrate=   1.2kbits/s speed=0.0167x elapsed=0:03:35.72    \nframe=  433 fps=2.0 q=36.0 size=       1KiB time=00:00:03.60 bitrate=   1.2kbits/s speed=0.0166x elapsed=0:03:36.30    \nframe=  436 fps=2.0 q=44.0 size=       1KiB time=00:00:03.61 bitrate=   1.2kbits/s speed=0.0167x elapsed=0:03:36.92    \nframe=  436 fps=2.0 q=44.0 size=       1KiB time=00:00:03.62 bitrate=   1.2kbits/s speed=0.0167x elapsed=0:03:37.50    \nframe=  437 fps=2.0 q=47.0 size=       1KiB time=00:00:03.63 bitrate=   1.2kbits/s speed=0.0167x elapsed=0:03:38.07    \nframe=  437 fps=2.0 q=47.0 size=       1KiB time=00:00:03.63 bitrate=   1.2kbits/s speed=0.0166x elapsed=0:03:38.63    \nframe=  438 fps=2.0 q=44.0 size=       1KiB time=00:00:03.64 bitrate=   1.2kbits/s speed=0.0166x elapsed=0:03:39.19    \nframe=  439 fps=2.0 q=45.0 size=       1KiB time=00:00:03.65 bitrate=   1.2kbits/s speed=0.0166x elapsed=0:03:39.76    \nframe=  442 fps=2.0 q=46.0 size=       1KiB time=00:00:03.67 bitrate=   1.2kbits/s speed=0.0167x elapsed=0:03:40.32    \nframe=  442 fps=2.0 q=46.0 size=       1KiB time=00:00:03.67 bitrate=   1.2kbits/s speed=0.0166x elapsed=0:03:40.89    \nframe=  444 fps=2.0 q=45.0 size=       1KiB time=00:00:03.68 bitrate=   1.2kbits/s speed=0.0166x elapsed=0:03:41.48    \nframe=  445 fps=2.0 q=48.0 size=       1KiB time=00:00:03.70 bitrate=   1.2kbits/s speed=0.0167x elapsed=0:03:42.17    \nframe=  446 fps=2.0 q=45.0 size=       1KiB time=00:00:03.70 bitrate=   1.2kbits/s speed=0.0166x elapsed=0:03:42.74    \nframe=  448 fps=2.0 q=45.0 size=       1KiB time=00:00:03.71 bitrate=   1.2kbits/s speed=0.0166x elapsed=0:03:43.30    \nframe=  449 fps=2.0 q=36.0 size=       1KiB time=00:00:03.73 bitrate=   1.2kbits/s speed=0.0167x elapsed=0:03:43.87    \nframe=  450 fps=2.0 q=46.0 size=       1KiB time=00:00:03.74 bitrate=   1.2kbits/s speed=0.0167x elapsed=0:03:44.45    \nframe=  453 fps=2.0 q=48.0 size=       1KiB time=00:00:03.76 bitrate=   1.2kbits/s speed=0.0167x elapsed=0:03:45.04    \nframe=  453 fps=2.0 q=48.0 size=       1KiB time=00:00:03.76 bitrate=   1.2kbits/s speed=0.0167x elapsed=0:03:45.59    \nframe=  454 fps=2.0 q=45.0 size=       1KiB time=00:00:03.77 bitrate=   1.2kbits/s speed=0.0167x elapsed=0:03:46.14    \nframe=  454 fps=2.0 q=45.0 size=       1KiB time=00:00:03.77 bitrate=   1.2kbits/s speed=0.0167x elapsed=0:03:46.71    \nframe=  456 fps=2.0 q=45.0 size=       1KiB time=00:00:03.79 bitrate=   1.2kbits/s speed=0.0167x elapsed=0:03:47.29    \nframe=  458 fps=2.0 q=45.0 size=       1KiB time=00:00:03.80 bitrate=   1.2kbits/s speed=0.0167x elapsed=0:03:47.87    \nframe=  459 fps=2.0 q=46.0 size=       1KiB time=00:00:03.81 bitrate=   1.2kbits/s speed=0.0167x elapsed=0:03:48.45    \nframe=  461 fps=2.0 q=47.0 size=       1KiB time=00:00:03.83 bitrate=   1.2kbits/s speed=0.0167x elapsed=0:03:49.03    \nframe=  462 fps=2.0 q=45.0 size=       1KiB time=00:00:03.84 bitrate=   1.2kbits/s speed=0.0167x elapsed=0:03:49.59    \nframe=  464 fps=2.0 q=45.0 size=       1KiB time=00:00:03.85 bitrate=   1.2kbits/s speed=0.0168x elapsed=0:03:50.15    \nframe=  465 fps=2.0 q=36.0 size=       1KiB time=00:00:03.86 bitrate=   1.2kbits/s speed=0.0168x elapsed=0:03:50.72    \nframe=  466 fps=2.0 q=45.0 size=       1KiB time=00:00:03.87 bitrate=   1.2kbits/s speed=0.0168x elapsed=0:03:51.28    \nframe=  467 fps=2.0 q=46.0 size=       1KiB time=00:00:03.88 bitrate=   1.2kbits/s speed=0.0167x elapsed=0:03:51.84    \nframe=  469 fps=2.0 q=47.0 size=       1KiB time=00:00:03.90 bitrate=   1.1kbits/s speed=0.0168x elapsed=0:03:52.42    \nframe=  470 fps=2.0 q=45.0 size=       1KiB time=00:00:03.90 bitrate=   1.1kbits/s speed=0.0167x elapsed=0:03:52.99    \nframe=  470 fps=2.0 q=45.0 size=       1KiB time=00:00:03.90 bitrate=   1.1kbits/s speed=0.0167x elapsed=0:03:53.56    \nframe=  471 fps=2.0 q=46.0 size=       1KiB time=00:00:03.91 bitrate=   1.1kbits/s speed=0.0167x elapsed=0:03:54.12    \nframe=  473 fps=2.0 q=45.0 size=       1KiB time=00:00:03.93 bitrate=   1.1kbits/s speed=0.0168x elapsed=0:03:54.68    \nframe=  474 fps=2.0 q=45.0 size=       1KiB time=00:00:03.94 bitrate=   1.1kbits/s speed=0.0168x elapsed=0:03:55.24    \nframe=  475 fps=2.0 q=45.0 size=       1KiB time=00:00:03.95 bitrate=   1.1kbits/s speed=0.0167x elapsed=0:03:55.83    \nframe=  477 fps=2.0 q=46.0 size=       1KiB time=00:00:03.96 bitrate=   1.1kbits/s speed=0.0168x elapsed=0:03:56.43    \nframe=  478 fps=2.0 q=45.0 size=       1KiB time=00:00:03.97 bitrate=   1.1kbits/s speed=0.0168x elapsed=0:03:57.02    \nframe=  480 fps=2.0 q=45.0 size=       1KiB time=00:00:03.99 bitrate=   1.1kbits/s speed=0.0168x elapsed=0:03:57.58    \nframe=  481 fps=2.0 q=37.0 size=       1KiB time=00:00:04.00 bitrate=   1.1kbits/s speed=0.0168x elapsed=0:03:58.16    \nframe=  482 fps=2.0 q=45.0 size=       1KiB time=00:00:04.00 bitrate=   1.1kbits/s speed=0.0168x elapsed=0:03:58.72    \nframe=  484 fps=2.0 q=45.0 size=       1KiB time=00:00:04.02 bitrate=   1.1kbits/s speed=0.0168x elapsed=0:03:59.30    \nframe=  485 fps=2.0 q=46.0 size=       1KiB time=00:00:04.03 bitrate=   1.1kbits/s speed=0.0168x elapsed=0:03:59.90    \nframe=  486 fps=2.0 q=45.0 size=       1KiB time=00:00:04.04 bitrate=   1.1kbits/s speed=0.0168x elapsed=0:04:00.49    \nframe=  486 fps=2.0 q=45.0 size=       1KiB time=00:00:04.04 bitrate=   1.1kbits/s speed=0.0168x elapsed=0:04:01.08    \nframe=  487 fps=2.0 q=45.0 size=       1KiB time=00:00:04.05 bitrate=   1.1kbits/s speed=0.0168x elapsed=0:04:01.66    \nframe=  489 fps=2.0 q=45.0 size=       1KiB time=00:00:04.06 bitrate=   1.1kbits/s speed=0.0168x elapsed=0:04:02.22    \nframe=  490 fps=2.0 q=45.0 size=       1KiB time=00:00:04.07 bitrate=   1.1kbits/s speed=0.0168x elapsed=0:04:02.80    \nframe=  491 fps=2.0 q=46.0 size=       1KiB time=00:00:04.08 bitrate=   1.1kbits/s speed=0.0168x elapsed=0:04:03.37    \nframe=  492 fps=2.0 q=45.0 size=       1KiB time=00:00:04.09 bitrate=   1.1kbits/s speed=0.0168x elapsed=0:04:03.93    \nframe=  494 fps=2.0 q=45.0 size=       1KiB time=00:00:04.10 bitrate=   1.1kbits/s speed=0.0168x elapsed=0:04:04.51    \nframe=  494 fps=2.0 q=45.0 size=       1KiB time=00:00:04.10 bitrate=   1.1kbits/s speed=0.0168x elapsed=0:04:05.11    \nframe=  497 fps=2.0 q=37.0 size=       1KiB time=00:00:04.13 bitrate=   1.1kbits/s speed=0.0168x elapsed=0:04:05.67    \nframe=  498 fps=2.0 q=46.0 size=       1KiB time=00:00:04.14 bitrate=   1.1kbits/s speed=0.0168x elapsed=0:04:06.23    \nframe=  500 fps=2.0 q=46.0 size=       1KiB time=00:00:04.15 bitrate=   1.1kbits/s speed=0.0168x elapsed=0:04:06.83    \nframe=  500 fps=2.0 q=46.0 size=       1KiB time=00:00:04.15 bitrate=   1.1kbits/s speed=0.0168x elapsed=0:04:07.44    \nframe=  501 fps=2.0 q=47.0 size=       1KiB time=00:00:04.16 bitrate=   1.1kbits/s speed=0.0168x elapsed=0:04:08.04    \nframe=  505 fps=2.0 q=45.0 size=       1KiB time=00:00:04.20 bitrate=   1.1kbits/s speed=0.0169x elapsed=0:04:08.65    \nframe=  505 fps=2.0 q=45.0 size=       1KiB time=00:00:04.20 bitrate=   1.1kbits/s speed=0.0169x elapsed=0:04:09.22    \nframe=  507 fps=2.0 q=46.0 size=       1KiB time=00:00:04.20 bitrate=   1.1kbits/s speed=0.0168x elapsed=0:04:09.79    \nframe=  509 fps=2.0 q=46.0 size=       1KiB time=00:00:04.21 bitrate=   1.1kbits/s speed=0.0168x elapsed=0:04:10.36    \nframe=  509 fps=2.0 q=46.0 size=       1KiB time=00:00:04.23 bitrate=   1.1kbits/s speed=0.0169x elapsed=0:04:10.94    \nframe=  511 fps=2.0 q=46.0 size=       1KiB time=00:00:04.25 bitrate=   1.1kbits/s speed=0.0169x elapsed=0:04:11.49    \nframe=  513 fps=2.0 q=36.0 size=       1KiB time=00:00:04.26 bitrate=   1.0kbits/s speed=0.0169x elapsed=0:04:12.06    \nframe=  515 fps=2.0 q=47.0 size=       1KiB time=00:00:04.28 bitrate=   1.0kbits/s speed=0.017x elapsed=0:04:12.62    \nframe=  517 fps=2.0 q=48.0 size=       1KiB time=00:00:04.30 bitrate=   1.0kbits/s speed=0.017x elapsed=0:04:13.18    \nframe=  517 fps=2.0 q=48.0 size=       1KiB time=00:00:04.30 bitrate=   1.0kbits/s speed=0.0169x elapsed=0:04:13.76    \nframe=  521 fps=2.0 q=46.0 size=       1KiB time=00:00:04.33 bitrate=   1.0kbits/s speed=0.017x elapsed=0:04:14.32    \nframe=  521 fps=2.0 q=46.0 size=       1KiB time=00:00:04.33 bitrate=   1.0kbits/s speed=0.017x elapsed=0:04:14.87    \nframe=  521 fps=2.0 q=46.0 size=       1KiB time=00:00:04.33 bitrate=   1.0kbits/s speed=0.017x elapsed=0:04:15.43    \nframe=  521 fps=2.0 q=46.0 size=       1KiB time=00:00:04.33 bitrate=   1.0kbits/s speed=0.0169x elapsed=0:04:16.01    \nframe=  523 fps=2.0 q=46.0 size=       1KiB time=00:00:04.35 bitrate=   1.0kbits/s speed=0.017x elapsed=0:04:16.56    \nframe=  525 fps=2.0 q=47.0 size=       1KiB time=00:00:04.36 bitrate=   1.0kbits/s speed=0.017x elapsed=0:04:17.11    \nframe=  525 fps=2.0 q=47.0 size=       1KiB time=00:00:04.36 bitrate=   1.0kbits/s speed=0.0169x elapsed=0:04:17.68    \nframe=  527 fps=2.0 q=45.0 size=       1KiB time=00:00:04.38 bitrate=   1.0kbits/s speed=0.017x elapsed=0:04:18.31    \nframe=  529 fps=2.0 q=37.0 size=       1KiB time=00:00:04.40 bitrate=   1.0kbits/s speed=0.017x elapsed=0:04:18.88    \nframe=  529 fps=2.0 q=37.0 size=       1KiB time=00:00:04.40 bitrate=   1.0kbits/s speed=0.017x elapsed=0:04:19.42    \nframe=  529 fps=2.0 q=37.0 size=       1KiB time=00:00:04.40 bitrate=   1.0kbits/s speed=0.0169x elapsed=0:04:19.98    \nframe=  533 fps=2.0 q=48.0 size=       1KiB time=00:00:04.43 bitrate=   1.0kbits/s speed=0.017x elapsed=0:04:20.54    \nframe=  533 fps=2.0 q=48.0 size=       1KiB time=00:00:04.43 bitrate=   1.0kbits/s speed=0.017x elapsed=0:04:21.11    \nframe=  535 fps=2.0 q=46.0 size=       1KiB time=00:00:04.45 bitrate=   1.0kbits/s speed=0.017x elapsed=0:04:21.68    \nframe=  537 fps=2.0 q=45.0 size=       1KiB time=00:00:04.46 bitrate=   1.0kbits/s speed=0.017x elapsed=0:04:22.25    \nframe=  537 fps=2.0 q=45.0 size=       1KiB time=00:00:04.46 bitrate=   1.0kbits/s speed=0.017x elapsed=0:04:22.81    \nframe=  537 fps=2.0 q=45.0 size=       1KiB time=00:00:04.46 bitrate=   1.0kbits/s speed=0.017x elapsed=0:04:23.36    \nframe=  537 fps=2.0 q=45.0 size=       1KiB time=00:00:04.46 bitrate=   1.0kbits/s speed=0.0169x elapsed=0:04:23.92    \nframe=  541 fps=2.0 q=47.0 size=       1KiB time=00:00:04.50 bitrate=   1.0kbits/s speed=0.017x elapsed=0:04:24.48    \nframe=  541 fps=2.0 q=47.0 size=       1KiB time=00:00:04.50 bitrate=   1.0kbits/s speed=0.017x elapsed=0:04:25.03    \nframe=  543 fps=2.0 q=45.0 size=       1KiB time=00:00:04.51 bitrate=   1.0kbits/s speed=0.017x elapsed=0:04:25.60    \nframe=  545 fps=2.0 q=36.0 size=       1KiB time=00:00:04.53 bitrate=   1.0kbits/s speed=0.017x elapsed=0:04:26.15    \nframe=  547 fps=2.1 q=45.0 size=       1KiB time=00:00:04.55 bitrate=   1.0kbits/s speed=0.0171x elapsed=0:04:26.74    \nframe=  549 fps=2.1 q=46.0 size=       1KiB time=00:00:04.56 bitrate=   1.0kbits/s speed=0.0171x elapsed=0:04:27.33    \nframe=  549 fps=2.0 q=46.0 size=       1KiB time=00:00:04.56 bitrate=   1.0kbits/s speed=0.017x elapsed=0:04:27.91    \nframe=  551 fps=2.1 q=45.0 size=       1KiB time=00:00:04.58 bitrate=   1.0kbits/s speed=0.0171x elapsed=0:04:28.48    \nframe=  553 fps=2.1 q=45.0 size=       1KiB time=00:00:04.60 bitrate=   1.0kbits/s speed=0.0171x elapsed=0:04:29.07    \nframe=  553 fps=2.1 q=45.0 size=       1KiB time=00:00:04.60 bitrate=   1.0kbits/s speed=0.0171x elapsed=0:04:29.65    \nframe=  553 fps=2.0 q=45.0 size=       1KiB time=00:00:04.60 bitrate=   1.0kbits/s speed=0.017x elapsed=0:04:30.21    \nframe=  553 fps=2.0 q=45.0 size=       1KiB time=00:00:04.60 bitrate=   1.0kbits/s speed=0.017x elapsed=0:04:30.80    \nframe=  555 fps=2.0 q=45.0 size=       1KiB time=00:00:04.61 bitrate=   1.0kbits/s speed=0.017x elapsed=0:04:31.37    \nframe=  557 fps=2.0 q=45.0 size=       1KiB time=00:00:04.63 bitrate=   1.0kbits/s speed=0.017x elapsed=0:04:31.94    \nframe=  557 fps=2.0 q=45.0 size=       1KiB time=00:00:04.63 bitrate=   1.0kbits/s speed=0.017x elapsed=0:04:32.53    \nframe=  561 fps=2.1 q=36.0 size=       1KiB time=00:00:04.66 bitrate=   1.0kbits/s speed=0.0171x elapsed=0:04:33.11    \nframe=  561 fps=2.0 q=36.0 size=       1KiB time=00:00:04.66 bitrate=   1.0kbits/s speed=0.0171x elapsed=0:04:33.69    \nframe=  563 fps=2.1 q=46.0 size=       1KiB time=00:00:04.68 bitrate=   1.0kbits/s speed=0.0171x elapsed=0:04:34.29    \nframe=  565 fps=2.1 q=47.0 size=       1KiB time=00:00:04.70 bitrate=   1.0kbits/s speed=0.0171x elapsed=0:04:34.88    \nframe=  565 fps=2.1 q=47.0 size=       1KiB time=00:00:04.70 bitrate=   1.0kbits/s speed=0.0171x elapsed=0:04:35.46    \nframe=  569 fps=2.1 q=45.0 size=       1KiB time=00:00:04.73 bitrate=   0.9kbits/s speed=0.0171x elapsed=0:04:36.04    \nframe=  569 fps=2.1 q=45.0 size=       1KiB time=00:00:04.73 bitrate=   0.9kbits/s speed=0.0171x elapsed=0:04:36.61    \nframe=  569 fps=2.1 q=45.0 size=       1KiB time=00:00:04.73 bitrate=   0.9kbits/s speed=0.0171x elapsed=0:04:37.18    \nframe=  569 fps=2.0 q=45.0 size=       1KiB time=00:00:04.73 bitrate=   0.9kbits/s speed=0.017x elapsed=0:04:37.77    \nframe=  571 fps=2.1 q=44.0 size=       1KiB time=00:00:04.75 bitrate=   0.9kbits/s speed=0.0171x elapsed=0:04:38.33    \nframe=  573 fps=2.1 q=46.0 size=       1KiB time=00:00:04.76 bitrate=   0.9kbits/s speed=0.0171x elapsed=0:04:38.88    \nframe=  573 fps=2.1 q=46.0 size=       1KiB time=00:00:04.76 bitrate=   0.9kbits/s speed=0.0171x elapsed=0:04:39.43    \nframe=  575 fps=2.1 q=43.0 size=       1KiB time=00:00:04.78 bitrate=   0.9kbits/s speed=0.0171x elapsed=0:04:40.01    \nframe=  577 fps=2.1 q=36.0 size=       1KiB time=00:00:04.80 bitrate=   0.9kbits/s speed=0.0171x elapsed=0:04:40.58    \nframe=  577 fps=2.1 q=36.0 size=       1KiB time=00:00:04.80 bitrate=   0.9kbits/s speed=0.0171x elapsed=0:04:41.16    \nframe=  581 fps=2.1 q=46.0 size=       1KiB time=00:00:04.81 bitrate=   0.9kbits/s speed=0.0171x elapsed=0:04:41.71    \nframe=  581 fps=2.1 q=46.0 size=       1KiB time=00:00:04.83 bitrate=   0.9kbits/s speed=0.0171x elapsed=0:04:42.26    \nframe=  585 fps=2.1 q=45.0 size=       1KiB time=00:00:04.86 bitrate=   0.9kbits/s speed=0.0172x elapsed=0:04:42.81    \nframe=  585 fps=2.1 q=45.0 size=       1KiB time=00:00:04.86 bitrate=   0.9kbits/s speed=0.0172x elapsed=0:04:43.37    \nframe=  585 fps=2.1 q=45.0 size=       1KiB time=00:00:04.86 bitrate=   0.9kbits/s speed=0.0171x elapsed=0:04:43.94    \nframe=  585 fps=2.1 q=45.0 size=       1KiB time=00:00:04.86 bitrate=   0.9kbits/s speed=0.0171x elapsed=0:04:44.49    \nframe=  587 fps=2.1 q=46.0 size=       1KiB time=00:00:04.88 bitrate=   0.9kbits/s speed=0.0171x elapsed=0:04:45.06    \nframe=  589 fps=2.1 q=48.0 size=       1KiB time=00:00:04.90 bitrate=   0.9kbits/s speed=0.0172x elapsed=0:04:45.61    \nframe=  591 fps=2.1 q=46.0 size=       1KiB time=00:00:04.91 bitrate=   0.9kbits/s speed=0.0172x elapsed=0:04:46.17    \n[out#0/matroska @ 000001be9a4e90c0] video:913KiB audio:0KiB subtitle:0KiB other streams:0KiB global headers:0KiB muxing overhead: 0.355398%\nframe=  600 fps=2.1 q=53.0 Lsize=     916KiB time=00:00:04.99 bitrate=1503.4kbits/s speed=0.0174x elapsed=0:04:46.33    \n",
  "seconds": 288.52195835113525,
  "probe_out": {}
}